<svg id="Camada_1" data-name="Camada 1" xmlns="http://www.w3.org/2000/svg" viewBox="0 0 500 500"><defs><style>.cls-1{fill:#093943;}</style></defs><path class="cls-1" d="M266.91,373.92l12.59,1.74a1.54,1.54,0,0,0,1.84-1.05,1.5,1.5,0,0,0-1-1.84l-.51-.11a1.52,1.52,0,0,0-1.84,1,1.5,1.5,0,0,0,1,1.84l.51.11.8-2.89L267.7,371a1.54,1.54,0,0,0-1.84,1.05,1.5,1.5,0,0,0,1.05,1.84Z"/><path class="cls-1" d="M293.28,385.72a97.48,97.48,0,0,0,8.36-25c.36-1.89-2.53-2.7-2.89-.8a94.38,94.38,0,0,1-8.06,24.31c-.85,1.72,1.73,3.24,2.59,1.51Z"/><path class="cls-1" d="M301.26,354.61c5-.45,9.85,4,9.51,9.07-.33,4.74-5.54,8.56-10.14,7.66-1.89-.37-2.69,2.52-.8,2.89a12,12,0,0,0,12.65-6.12,11.08,11.08,0,0,0-3-13.77,11.39,11.39,0,0,0-8.2-2.73c-1.91.17-1.92,3.17,0,3Z"/><path class="cls-1" d="M318.7,378.67a77.65,77.65,0,0,0,1.35,19.6,1.52,1.52,0,0,0,2.51.66,44.5,44.5,0,0,1,15.27-9.06c1.82-.62,1-3.52-.8-2.89a48.16,48.16,0,0,0-16.59,9.83l2.51.66a74.55,74.55,0,0,1-1.25-18.8c.11-1.93-2.89-1.92-3,0Z"/><path class="cls-1" d="M363.13,380.47a65.83,65.83,0,0,0-8.37,25.07,62.74,62.74,0,0,0-.44,6.42,10.25,10.25,0,0,0,1.24,5.81c2,3.11,5.89,3.82,9.32,4a24.49,24.49,0,0,0,11.41-1.57,14.53,14.53,0,0,0,7.53-8.08c1.53-3.74,2.05-7.85,2.55-11.84A36.22,36.22,0,0,0,386,386.7a18.07,18.07,0,0,0-7.22-10.76,13,13,0,0,0-12.29-1.17c-1.76.77-.24,3.35,1.52,2.59a9.94,9.94,0,0,1,9.1,1.07,14.42,14.42,0,0,1,5.72,8.09,29.62,29.62,0,0,1,.8,11.59,58.84,58.84,0,0,1-1.82,10.73c-.89,3.06-2.4,6.05-5.15,7.82s-6.29,2.23-9.59,2.22c-2.72,0-6.68,0-8.64-2.25-1.1-1.28-1.12-3.07-1.1-4.67,0-1.92.16-3.84.37-5.75a62.15,62.15,0,0,1,8-24.23,1.5,1.5,0,0,0-2.59-1.51Z"/><path class="cls-1" d="M370.28,405.11,372.65,435c.15,1.92,3.15,1.93,3,0l-2.37-29.88c-.15-1.91-3.16-1.92-3,0Z"/><path class="cls-1" d="M309.55,409.61l-47,14.29c-1.85.56-1.06,3.45.79,2.89l47-14.28c1.84-.56,1.06-3.46-.79-2.9Z"/><path class="cls-1" d="M309.56,413.43a144.19,144.19,0,0,1,16.81,31.67c.68,1.79,3.58,1,2.89-.8a147.29,147.29,0,0,0-17.1-32.38c-1.1-1.57-3.71-.08-2.6,1.51Z"/><path class="cls-1" d="M216.29,442.94,233,448.48c1.84.61,2.63-2.29.8-2.89l-16.74-5.54c-1.83-.61-2.62,2.29-.79,2.89Z"/><path class="cls-1" d="M238.91,464.71a181.9,181.9,0,0,1,10.73-26.1c.87-1.72-1.72-3.24-2.59-1.51a187.91,187.91,0,0,0-11,26.81c-.59,1.84,2.3,2.63,2.89.8Z"/><path class="cls-1" d="M242,429.29c4.34.3,8.91.64,12.84,2.66,3.25,1.67,6.22,4.84,6.5,8.64s-2.31,6.76-5.41,8.47c-3.95,2.18-8.69,2.23-13.07,2.34-1.93.05-1.94,3.05,0,3,7.32-.19,16.31-.94,20.21-8.23,3.63-6.77-1.13-14.29-7.49-17.19-4.27-1.94-9-2.37-13.58-2.69-1.93-.13-1.92,2.87,0,3Z"/><path class="cls-1" d="M335.14,454.28c-4.65-.53-9.25,1.86-12.12,5.44-3.17,3.95-4.37,9-4.61,14s.45,10,2.89,14.37a18.62,18.62,0,0,0,9.06,7.9,19.68,19.68,0,0,0,22.82-5.29,21.55,21.55,0,0,0,2.75-24,23.73,23.73,0,0,0-10.14-10c-3.18-1.62-9.87-3.56-11.14,1.51-.47,1.87,2.42,2.67,2.89.8.31-1.25,2.08-1.19,3.1-1.05a14,14,0,0,1,4.75,1.93,20.87,20.87,0,0,1,7.6,7.73,18.48,18.48,0,0,1-1.18,20.05,16.67,16.67,0,0,1-18.36,6.31,16.48,16.48,0,0,1-8.3-5.45c-2.54-3.2-3.55-7.38-3.74-11.39-.22-4.71.35-9.78,2.81-13.89,2.28-3.8,6.4-6.45,10.92-5.93,1.91.22,1.9-2.78,0-3Z"/><path class="cls-1" d="M338.43,484a104.27,104.27,0,0,1,11.87,23c.66,1.8,3.56,1,2.89-.8A107.08,107.08,0,0,0,341,482.51c-1.08-1.58-3.68-.08-2.59,1.52Z"/><path class="cls-1" d="M84.65,348.21l7.26-11.9H89.32l.81,1.06a1.55,1.55,0,0,0,2.06.53,1.5,1.5,0,0,0,.53-2l-.81-1.05a1.52,1.52,0,0,0-2.59,0l-7.26,11.9c-1,1.65,1.58,3.16,2.59,1.51Z"/><path class="cls-1" d="M72.68,323.71A101.06,101.06,0,0,0,114,338c1.91.23,1.89-2.77,0-3a97.74,97.74,0,0,1-39.77-13.88c-1.65-1-3.16,1.58-1.51,2.59Z"/><path class="cls-1" d="M76.4,314.88a118,118,0,0,0,41.08,15c1.89.31,2.7-2.58.8-2.89a115.69,115.69,0,0,1-40.36-14.73,1.5,1.5,0,0,0-1.52,2.59Z"/><path class="cls-1" d="M117.4,315.77a104.54,104.54,0,0,0-14.17-7.36,72.25,72.25,0,0,0-7.73-2.72c-1.54-.44-4.2-.86-5-2.46-.71-1.34.3-3.47,1.11-4.58a7.45,7.45,0,0,1,3.27-2.46,9.58,9.58,0,0,1,8.77.95c3.9,2.65,5,8.3,3.2,12.5a1.57,1.57,0,0,0,.54,2.05,1.53,1.53,0,0,0,2.06-.54,14,14,0,0,0-1.79-14.36,12.24,12.24,0,0,0-11.24-4.08,10.57,10.57,0,0,0-8.67,7c-.72,2.22-.62,4.62,1.19,6.28s4.88,2.27,7.33,3a87.07,87.07,0,0,1,19.66,9.34c1.66,1,3.16-1.59,1.52-2.6Z"/><path class="cls-1" d="M116.24,293.37l10.12-18.11c.94-1.68-1.65-3.2-2.59-1.51l-10.12,18.11c-.94,1.69,1.65,3.2,2.59,1.51Z"/><path class="cls-1" d="M118.77,267.48c2.15-2.09,4.43-4.36,7.44-5.08a5.61,5.61,0,0,1,6.17,2.29,26.7,26.7,0,0,1,2.57,6,19.79,19.79,0,0,0,3.28,6.25c1.24,1.47,3.35-.66,2.12-2.13-3.24-3.85-3-9.63-6.7-13.22a8.74,8.74,0,0,0-8.41-2c-3.45.89-6.11,3.39-8.59,5.81-1.39,1.35.73,3.47,2.12,2.12Z"/><path class="cls-1" d="M124.16,237.07c-1.5,7.91,5.16,13.33,11.43,16.55S150.08,260,156.47,255a9.28,9.28,0,0,0,3.82-8c-.31-3.4-2.54-6.14-5.09-8.23a57.7,57.7,0,0,0-10-6.45c-3.44-1.8-7.08-3.52-11-3.83-3.62-.28-7.56,1-9.78,4a7.74,7.74,0,0,0,.36,9.75c1.31,1.42,3.43-.7,2.12-2.12-1.64-1.77-1.25-4.69.35-6.36a8.63,8.63,0,0,1,7.17-2.21c3.2.32,6.24,1.82,9.06,3.28a67.55,67.55,0,0,1,8.26,5.05c2.07,1.48,4.3,3.32,5.23,5.77a5.9,5.9,0,0,1-1.65,6.43c-4.54,4.4-11.22,2.3-16.19-.08-5.37-2.57-13.42-6.91-12-14.15.35-1.89-2.54-2.69-2.9-.8Z"/><path class="cls-1" d="M149.11,247.22a30,30,0,0,1,18.49-5.69c1.93.06,1.93-2.94,0-3a32.61,32.61,0,0,0-20,6.1,1.54,1.54,0,0,0-.54,2.05,1.51,1.51,0,0,0,2.05.54Z"/><path class="cls-1" d="M129.66,220.42a69.59,69.59,0,0,1,45.82,26.39c1.18,1.52,3.29-.62,2.12-2.12a72.92,72.92,0,0,0-35.09-24.44,70,70,0,0,0-12-2.72,1.56,1.56,0,0,0-1.85,1,1.52,1.52,0,0,0,1,1.85Z"/><path class="cls-1" d="M164.51,216l15.22-21.88c1.11-1.59-1.49-3.09-2.59-1.51l-15.22,21.88c-1.11,1.59,1.49,3.09,2.59,1.51Z"/><path class="cls-1" d="M173,182.83l17.15-5.44-1.9-1.45a107.3,107.3,0,0,0,.89,17.64,1.55,1.55,0,0,0,1.5,1.5c.73,0,1.61-.69,1.5-1.5a107.3,107.3,0,0,1-.89-17.64,1.51,1.51,0,0,0-1.9-1.45l-17.14,5.45c-1.84.58-1.05,3.48.79,2.89Z"/><path class="cls-1" d="M174.06,148.83a84.65,84.65,0,0,0,36.1,21.8,83.65,83.65,0,0,0,11.9,2.61,1.57,1.57,0,0,0,1.85-1.05,1.52,1.52,0,0,0-1-1.85A82,82,0,0,1,185,154.54a80.09,80.09,0,0,1-8.83-7.83c-1.35-1.38-3.47.74-2.12,2.12Z"/><path class="cls-1" d="M205.24,149l6.61-9.56a1.51,1.51,0,0,0-.53-2,1.54,1.54,0,0,0-2.06.53l-6.61,9.56a1.51,1.51,0,0,0,.54,2,1.52,1.52,0,0,0,2.05-.53Z"/><path class="cls-1" d="M218.89,111.37c1.48-2.58-3.31-4.29-3.69-1.05l1.1-1.45c-5.7,2.24-7.45,9.28-4.9,14.53,2.78,5.71,9.58,8.89,15.67,9.33s12.8-2.44,14.34-8.95c1.63-6.92-2.73-13.37-8.68-16.54-3.63-1.93-8-3-12.06-1.84a10.75,10.75,0,0,0-7.54,7.26,1.5,1.5,0,0,0,2.89.8c1.69-6.07,9.11-6.34,13.92-4.25s9.14,6.62,8.79,12.27c-.32,5.25-4.85,8.11-9.74,8.28a17.51,17.51,0,0,1-13.29-5.33,9,9,0,0,1-2.43-7,6.76,6.76,0,0,1,3.83-5.63,1.59,1.59,0,0,0,1.1-1.44l0-.18-.44,1.07-1.48-1.35a1.5,1.5,0,0,0,2.59,1.51Z"/><path class="cls-1" d="M231.17,120.56,252,116.35c1.89-.38,1.09-3.27-.8-2.89l-20.85,4.21c-1.89.38-1.09,3.27.79,2.89Z"/><path class="cls-1" d="M242,97.31l6.56-14.08a1.55,1.55,0,0,0-.54-2,1.51,1.51,0,0,0-2,.54l-6.56,14.07a1.55,1.55,0,0,0,.54,2.06,1.51,1.51,0,0,0,2.05-.54Z"/><path class="cls-1" d="M236.28,76.28,244,72.9l3.76-1.65c.64-.28,2.48-1.46,3.23-1.06s.78,2,.93,2.63l1,4,2.14,8.44c.48,1.87,3.37,1.08,2.9-.8l-2.45-9.64c-.39-1.51-.71-3.06-1.17-4.55a4.26,4.26,0,0,0-2.14-2.81,4.91,4.91,0,0,0-4,.32c-1.49.63-3,1.3-4.44,1.94l-9,4a1.52,1.52,0,0,0-.54,2,1.55,1.55,0,0,0,2.06.54Z"/><path class="cls-1" d="M259.46,56.57l6.05-12a1.5,1.5,0,0,0-2.59-1.51L256,54c-1,1.63,1.55,3.13,2.59,1.51l6.94-10.85-2.59-1.51-6.05,12a1.54,1.54,0,0,0,.54,2,1.51,1.51,0,0,0,2-.54Z"/><path class="cls-1" d="M282.55,36.92,258.1,24.14c-1.71-.9-3.23,1.69-1.51,2.59L281,39.51c1.71.9,3.23-1.69,1.51-2.59Z"/><path class="cls-1" d="M252.81,31.68a29.9,29.9,0,0,1,1.46-10.32c.89-2.73,2.2-6,4.8-7.56,2.22-1.32,4.82-.75,6.88.6a10.45,10.45,0,0,1,4.39,6.86c.81,3.86.11,7.91-.54,11.74-.32,1.89,2.57,2.7,2.89.8,1.25-7.36,2.29-16.26-4.39-21.4-2.49-1.9-5.82-3-8.9-2-3.51,1.09-5.63,4.28-7,7.49a32.68,32.68,0,0,0-2.58,13.8c.06,1.93,3.06,1.94,3,0Z"/><path class="cls-1" d="M248.41-9l.7.23,0,.3a2.86,2.86,0,0,0,.52-.17A8.14,8.14,0,0,1,251-8.73c1.09-.06,2.17-.08,3.26-.08q3.06,0,6.11.33a62,62,0,0,1,12.14,2.57A63.57,63.57,0,0,1,294.21,6a60.63,60.63,0,0,1,9.67,10.32c1.13,1.54,3.74,0,2.59-1.52A66,66,0,0,0,255.22-11.8c-1.41,0-2.82,0-4.22.07a6.27,6.27,0,0,0-3.77,1c-2,1.64-.82,5.34,2,4.68,1.88-.44,1.09-3.33-.79-2.89Z"/><path class="cls-1" d="M251.75-24.18a133.61,133.61,0,0,1,63,26C316.3,3,317.8.35,316.28-.8a135.52,135.52,0,0,0-63.74-26.27A1.55,1.55,0,0,0,250.7-26a1.5,1.5,0,0,0,1.05,1.84Z"/><path class="cls-1" d="M443.75,338.88a7.06,7.06,0,0,0-5.31-1.81,5.73,5.73,0,0,0-4.42,2.71,6.54,6.54,0,0,0,1.87,8.65,7.11,7.11,0,0,0,9.12-1.75c2.24-2.9,1.63-7.19-.81-9.77a8.05,8.05,0,0,0-5.66-2.38,9.24,9.24,0,0,0-6,2.06,1.51,1.51,0,0,0,0,2.13,1.54,1.54,0,0,0,2.12,0l.2-.14.46-.28a3.17,3.17,0,0,1,.41-.21l.18-.09.18-.06a8.3,8.3,0,0,1,1-.29l.46-.08c-.23,0,.29,0,.37,0a5.15,5.15,0,0,1,3.49.9c.06,0,.32.25.15.11a3.8,3.8,0,0,1,.37.33l.29.31.14.17.07.09a7,7,0,0,1,.47.8c0,.06.18.38.09.16.07.18.13.36.19.54s.14.55.2.83,0,.09,0,0,0,.15,0,.22a4,4,0,0,1,0,.49c0,.17,0,.33,0,.49s0,0,0-.05a1.55,1.55,0,0,1,0,.21,6.05,6.05,0,0,1-.26.95c-.07.16,0,0,0,0s-.08.17-.13.25a2.5,2.5,0,0,1-.21.35,1,1,0,0,1-.11.17c-.13.19.14-.16,0,0s-.21.24-.32.35-.23.21-.35.31,0,0,0,0a.91.91,0,0,1-.16.11,7.22,7.22,0,0,1-.82.46l0,0-.25.09a2.91,2.91,0,0,1-.39.12l-.39.09-.26.05c.15,0,.15,0,0,0a8.22,8.22,0,0,1-.86,0h-.2s.25,0,.07,0l-.51-.11-.37-.13c-.22-.07.2.1,0,0l-.18-.09-.34-.2-.22-.15c.11.08.1.08,0,0l-.27-.26c-.05-.06-.1-.13-.16-.19s.15.2.05.06a6.09,6.09,0,0,1-.43-.75c-.07-.15,0,.06,0,.08l-.06-.18c0-.14-.09-.27-.12-.41s-.05-.25-.08-.37,0-.24,0-.05,0-.17,0-.17c0-.25,0-.5,0-.75s0,0,0,0a1.16,1.16,0,0,1,0-.18,3.15,3.15,0,0,1,.09-.42l.15-.47c-.1.3.06-.1.11-.19s.14-.25.22-.37l.1-.14c-.12.16-.06.08,0,0l.3-.29s.18-.15,0,0,.12-.08.15-.1a2.07,2.07,0,0,1,.8-.34c.07,0,.5-.11.27-.08a4,4,0,0,1,.6,0h.23s.31,0,.18,0l.18,0,.3.07a4,4,0,0,1,1.7.86,1.5,1.5,0,1,0,2.12-2.13Z"/><path class="cls-1" d="M436.85,355.21l-.69,34.48c0,1.93,3,1.93,3,0l.69-34.48c0-1.93-3-1.93-3,0Z"/><path class="cls-1" d="M438.25,408a4.6,4.6,0,0,0-5.06-2,5.9,5.9,0,0,0-4.25,4.13,13.08,13.08,0,0,0-.2,6.31,11,11,0,0,0,2.38,5.33c3.06,3.54,8.63,2.75,11.12-1s1.1-8.9-2.46-11.5c-4-2.91-9.73-1.48-12.32,2.59-1,1.63,1.56,3.14,2.59,1.51a5.8,5.8,0,0,1,7-2.24,5.71,5.71,0,0,1,3.27,6.76c-.8,2.64-4,4.27-6.39,2.44-2-1.55-2.52-4.79-2.44-7.28a6.88,6.88,0,0,1,.44-2.33,3,3,0,0,1,1.27-1.55,2.57,2.57,0,0,1,1.62-.28c-.08,0-.2,0,.07,0l.3.09c-.12-.05-.1,0,.06,0a.87.87,0,0,1,.43.44,1.5,1.5,0,0,0,2.59-1.52Z"/><path class="cls-1" d="M447.16,433.71a122.93,122.93,0,0,1,28.42,30.76q3.24,5,6,10.3c.89,1.71,3.48.2,2.59-1.51A126.06,126.06,0,0,0,458.09,439c-3-2.79-6.16-5.41-9.42-7.91-1.53-1.17-3,1.44-1.51,2.59Z"/><path class="cls-1" d="M420.37,429.24a112.64,112.64,0,0,0-25.71,41.13,111.45,111.45,0,0,0-3.8,13.3c-.41,1.88,2.48,2.68,2.9.79a109.88,109.88,0,0,1,19.78-42.8,106.86,106.86,0,0,1,8.95-10.3c1.36-1.38-.76-3.5-2.12-2.12Z"/><path class="cls-1" d="M485.27,483.17c-2.6,3.54-4.51,8.27-2.17,12.46,1.93,3.48,6.09,4.18,9.53,2.66a8.88,8.88,0,0,0,5.22-9.13,8.5,8.5,0,0,0-2.76-5.57,8.2,8.2,0,0,0-5.61-2,7.09,7.09,0,0,0-5.67,3.12,6.84,6.84,0,0,0-.82,6.24,1.53,1.53,0,0,0,1.84,1,1.51,1.51,0,0,0,1.05-1.84,3.52,3.52,0,0,1-.3-1.8,4.73,4.73,0,0,1,.51-1.63,4,4,0,0,1,2.82-2.08,5.13,5.13,0,0,1,3.72.85,5.41,5.41,0,0,1,2.16,3.44,6.36,6.36,0,0,1-.49,4,5.69,5.69,0,0,1-2.42,2.46,6.63,6.63,0,0,1-2.09.73c-.28.05.08,0-.2,0a7.85,7.85,0,0,1-1,0h-.22s.22,0,0,0L488,496l-.42-.13-.2-.08c.15.07,0,0,0,0a3.3,3.3,0,0,1-1.32-1.07c-2.36-3.11-.2-7.22,1.83-10a1.51,1.51,0,0,0-.54-2.05,1.52,1.52,0,0,0-2.05.54Z"/><path class="cls-1" d="M391.55,497.4l.41-.11c.4-.11-.28,0,.14,0s.54,0,.82,0-.28-.07.14,0l.4.08a5.49,5.49,0,0,1,.78.26c-.3-.12.12.06.14.08a2.64,2.64,0,0,1,.37.2l.35.22s.38.29.14.09c.18.15.35.3.52.47s.19.19.29.3l.18.21c-.09-.12-.09-.12,0,0a7.42,7.42,0,0,1,.44.7c.07.13.13.25.18.37-.13-.29,0,.12.05.15.07.22.12.44.18.66.1.41,0-.28,0,.14,0,.18,0,.36,0,.55a2.83,2.83,0,0,1,0,.41c0-.35,0,.06,0,.11a5.9,5.9,0,0,1-.17.6c-.11.37.14-.26,0,.09l-.17.33a3.21,3.21,0,0,1-.19.31l-.14.21c.11-.14.11-.15,0,0s-.3.34-.47.5l-.22.21s-.37.28-.09.08c-.2.14-.41.28-.63.41l-.33.18c-.06,0-.55.23-.21.1a7.62,7.62,0,0,1-1.32.37c-.4.08.31,0-.1,0l-.37,0c-.24,0-.49,0-.73,0,.37,0,0,0-.09,0l-.36-.08-.35-.11c-.38-.11.25.14-.1,0a6.84,6.84,0,0,1-.65-.37c-.23-.13-.05,0,0,0a3.8,3.8,0,0,1-.37-.33l-.25-.26c0-.05-.27-.37-.07-.08a5.6,5.6,0,0,1-.38-.61l-.17-.33v0a7.81,7.81,0,0,1-.26-.82c0-.12,0-.24-.07-.36s0-.16,0,0l0-.25c0-.24,0-.49,0-.74s0-.25,0-.37l0-.25q0,.3,0,0a7.72,7.72,0,0,1,.2-.83l.12-.35c.1-.28-.11.19.07-.15l.4-.68c.21-.33-.2.21.06-.08l.33-.36.27-.24c.13-.11.13-.11,0,0l.21-.14a1.5,1.5,0,1,0-1.52-2.59c-4.74,3.14-4.07,11.48,1.67,13.11a7.92,7.92,0,0,0,7.48-2.05,6.67,6.67,0,0,0,1.2-8,7.65,7.65,0,0,0-8.51-3.89,1.5,1.5,0,0,0,.79,2.9Z"/><path class="cls-1" d="M303.2,146.52l2.08.31a1.53,1.53,0,0,0,1.9-1.44,26.25,26.25,0,0,1,11.39-19.18l-2.2-.9a179.09,179.09,0,0,1,5.51,27.81c.22,1.9,3.22,1.92,3,0a184.59,184.59,0,0,0-5.62-28.61,1.51,1.51,0,0,0-2.2-.89,29.49,29.49,0,0,0-12.88,21.77l1.9-1.45-2.08-.32c-1.89-.28-2.7,2.61-.8,2.9Z"/><path class="cls-1" d="M309.53,142l15.6,4c1.88.48,2.67-2.42.8-2.89l-15.61-4c-1.87-.47-2.67,2.42-.79,2.9Z"/><path class="cls-1" d="M341.56,151.37l18.61,3.73c1.88.38,2.69-2.52.79-2.89l-18.6-3.73c-1.89-.38-2.69,2.52-.8,2.89Z"/><path class="cls-1" d="M363.84,148.44q5.61,6,11.39,11.75l.66-2.5a33.35,33.35,0,0,0-11.95,5.13c-1.58,1.09-.08,3.69,1.51,2.59a31.24,31.24,0,0,1,11.24-4.83,1.52,1.52,0,0,0,.66-2.51q-5.78-5.79-11.39-11.75c-1.32-1.41-3.44.72-2.12,2.12Z"/><path class="cls-1" d="M397.82,171.05l4.78-24.17a1.52,1.52,0,0,0-1.05-1.84l-1.71-.47a1.5,1.5,0,0,0-.79,2.89l1.7.47-1-1.85-4.78,24.17c-.37,1.89,2.52,2.69,2.89.8Z"/><path class="cls-1" d="M393.07,140.33c5.22-.54,12.32-1.27,15.31,4.14,1.06,1.92,1.22,4.33-.43,6s-4.57,2.07-6.92,2.26c-1.36.11-2.2,2.07-.76,2.79,2.59,1.3,5.34,2.62,7.25,4.86,1.65,1.94,2.6,4.82,1.22,7.16a7.67,7.67,0,0,1-5.81,3.34c-3.3.34-6.55-.8-9.63-1.82-1.83-.61-2.62,2.29-.79,2.89,3.7,1.23,7.58,2.43,11.52,1.79a10.33,10.33,0,0,0,7.47-5,9.13,9.13,0,0,0-1-9.42c-2.14-3-5.47-4.79-8.71-6.41l-.75,2.8c3.13-.26,6.54-.77,8.92-3a7.63,7.63,0,0,0,1.6-8.47c-3-7.56-11.62-7.59-18.48-6.88-1.9.2-1.92,3.2,0,3Z"/><path class="cls-1" d="M422,142.56a85.51,85.51,0,0,1-2.29,42.75c-.58,1.85,2.31,2.64,2.89.8a88.72,88.72,0,0,0,2.29-44.35c-.38-1.89-3.28-1.09-2.89.8Z"/><path class="cls-1" d="M292.22,113.7a60.63,60.63,0,0,0-12,46.75c.3,1.9,3.19,1.09,2.89-.8a57.37,57.37,0,0,1,11.25-43.83c1.17-1.5-.94-3.64-2.12-2.12Z"/><path class="cls-1" d="M448.51,183.48a220.89,220.89,0,0,1,14.74-17.73l-2.56-1.06a114.06,114.06,0,0,0,4.95,23.49c.6,1.83,3.5,1,2.9-.79a109.6,109.6,0,0,1-4.85-22.7,1.52,1.52,0,0,0-2.56-1.06A227.88,227.88,0,0,0,445.92,182c-1.16,1.55,1.45,3,2.59,1.51Z"/><path class="cls-1" d="M493.21,191.13a72.78,72.78,0,0,0,5.31-18,1.54,1.54,0,0,0-1-1.85,1.5,1.5,0,0,0-1.84,1,70.24,70.24,0,0,1-5,17.33,1.55,1.55,0,0,0,.54,2,1.5,1.5,0,0,0,2-.54Z"/><path class="cls-1" d="M494.7,168.25c2.09,1.48,4.63,1.9,7.08,2.47,2.09.49,4.71,1.2,5.26,3.61s-1.11,5-3.11,6.18c-2.76,1.67-6.14,1.82-9.28,2a1.51,1.51,0,0,0-.4,2.95,12.23,12.23,0,0,1,5.13,2.91c1.07,1,2.86,2.9,2.76,4.5s-4.28.17-5.15,0l-7.57-1.56c-1.88-.38-2.69,2.51-.79,2.9,3.39.69,6.78,1.4,10.17,2.08,2.48.5,5.7.43,6.26-2.69.46-2.52-1.41-5.09-3-6.82a15.49,15.49,0,0,0-7-4.22l-.4,3c3.78-.2,7.9-.44,11.14-2.61a9.43,9.43,0,0,0,4.34-8c-.16-3.24-2.49-5.41-5.39-6.45s-6-1-8.53-2.78c-1.57-1.12-3.07,1.48-1.51,2.6Z"/><path class="cls-1" d="M489,156.76A101.8,101.8,0,0,0,473,203c-.18,1.93,2.82,1.91,3,0a98.32,98.32,0,0,1,15.52-44.73c1.05-1.63-1.55-3.13-2.6-1.52Z"/><path class="cls-1" d="M421.46,246.2a7.79,7.79,0,0,0-9.79,2.25,7.58,7.58,0,0,0,1.33,9.86c3.28,2.9,7.45,1.55,11.27.91,1.72-.29,3.69-.36,5,1a5.17,5.17,0,0,1,1.13,5c-1.55,5.28-8.12,6.2-12.74,6.41-1.92.08-1.93,3.08,0,3,4.48-.2,9.16-.87,12.63-4a9,9,0,0,0,2.51-10.5c-1.79-3.82-5.76-4.41-9.52-3.74-3.32.59-7.8,2-9.52-2a4.43,4.43,0,0,1,6.17-5.57c1.7.9,3.22-1.69,1.51-2.59Z"/><path class="cls-1" d="M440.63,256.93c2.71,1,5.59,2,8.53,1.46a7.27,7.27,0,0,0,5.17-4c2-4.59-2.8-8.58-7.18-7.77-4.68.86-7.73,5.89-8.47,10.26s.44,9.34,4.28,12.05,9.53,2.62,12.65-1c1.25-1.45-.86-3.58-2.13-2.12a6.5,6.5,0,0,1-7.54,1.35,8,8,0,0,1-4.5-7.4,11.47,11.47,0,0,1,4-9.14,4.55,4.55,0,0,1,4.14-1,2.89,2.89,0,0,1,2.26,2.6c-.07,1.68-1.81,2.85-3.32,3.16-2.38.48-4.9-.6-7.08-1.44a1.51,1.51,0,0,0-1.84,1.05,1.54,1.54,0,0,0,1.05,1.85Z"/><path class="cls-1" d="M476.65,264V262.8a1.14,1.14,0,0,0-.13-.57,1.11,1.11,0,0,0-.31-.49,1.24,1.24,0,0,0-.48-.31,1.27,1.27,0,0,0-.58-.13l-.4.06a1.57,1.57,0,0,0-.66.38l-.24.31a1.5,1.5,0,0,0-.2.75V264a1.06,1.06,0,0,0,.13.58,1,1,0,0,0,.31.48,1.08,1.08,0,0,0,.48.31,1.06,1.06,0,0,0,.58.13l.4-.05a1.49,1.49,0,0,0,.66-.39l.23-.3a1.45,1.45,0,0,0,.21-.76Z"/><path class="cls-1" d="M488.25,265.56l1.15-1.15a1.08,1.08,0,0,0,.31-.48,1.36,1.36,0,0,0,0-1.16,1.14,1.14,0,0,0-.31-.48l-.3-.23a1.48,1.48,0,0,0-.76-.21l-.4,0a1.59,1.59,0,0,0-.66.39l-1.15,1.15a1.08,1.08,0,0,0-.31.48,1.36,1.36,0,0,0,0,1.16,1.14,1.14,0,0,0,.31.48l.3.23a1.48,1.48,0,0,0,.76.21l.4-.05a1.59,1.59,0,0,0,.66-.39Z"/><path class="cls-1" d="M458.58,285.85c1.79,2.07,4,4.26,6.8,4.87a5.93,5.93,0,0,0,6.59-3.06c2.69-5.15-1.89-12.09-7.29-13-5.59-1-8.24,4.56-8.94,9.16-.9,5.91-1.32,12.71,1.78,18.09a11.73,11.73,0,0,0,7,5.66,9.41,9.41,0,0,0,8.53-1.82c1.48-1.24-.65-3.35-2.12-2.12-3.18,2.68-7.87.9-10.1-2.1-2.88-3.89-2.89-9-2.54-13.58.24-3.06.37-7.76,3.16-9.76,3.55-2.55,8.1,2.54,8.31,5.9.13,2-1.24,4.11-3.45,3.8s-4.18-2.46-5.61-4.12c-1.27-1.46-3.38.67-2.13,2.12Z"/><path class="cls-1" d="M487.52,303.78,484.65,286a1.51,1.51,0,0,0-1.84-1.05,1.53,1.53,0,0,0-1.05,1.85l2.87,17.81a1.51,1.51,0,0,0,1.84,1.05,1.53,1.53,0,0,0,1-1.85Z"/><path class="cls-1" d="M486.87,292.31a18.11,18.11,0,0,1,6.62-8.8l-2.05-.54a58.69,58.69,0,0,1,5.19,17.77,1.54,1.54,0,0,0,1.5,1.5,1.51,1.51,0,0,0,1.5-1.5,63,63,0,0,0-5.6-19.28,1.5,1.5,0,0,0-2-.54,21.5,21.5,0,0,0-8,10.59c-.64,1.83,2.26,2.61,2.89.8Z"/><path class="cls-1" d="M500.88,282.24l12.6-3c1.88-.45,1.09-3.34-.79-2.89l-12.61,3c-1.88.45-1.08,3.34.8,2.89Z"/><path class="cls-1" d="M293.13,261.37a73.19,73.19,0,0,1,11.59-5.51,1.53,1.53,0,0,0,1.08-1.65,1.5,1.5,0,0,0-1.48-1.3,20.76,20.76,0,0,0-13.05,6.35c-1.33,1.41.79,3.53,2.12,2.12a17.7,17.7,0,0,1,10.93-5.47l-.4-2.95a77.66,77.66,0,0,0-12.3,5.82,1.5,1.5,0,0,0,1.51,2.59Z"/><path class="cls-1" d="M321,256.31l-6.29-19.74c-.58-1.84-3.48-1-2.89.79l6.29,19.75c.58,1.83,3.48,1.05,2.89-.8Z"/><path class="cls-1" d="M302,234.12a28.45,28.45,0,0,1,10.77-3.94c3.27-.47,7.39-.69,10.37,1s2.85,5.31,1,7.88c-2.18,3-6.23,4.07-9.62,5.05a1.5,1.5,0,0,0,.8,2.89c3.45-1,7-2.09,9.73-4.51a9.91,9.91,0,0,0,3.41-8.35c-.92-7.43-10.41-7.71-16.06-6.92a30.93,30.93,0,0,0-11.91,4.3c-1.65,1-.14,3.6,1.51,2.59Z"/><path class="cls-1" d="M349.88,242l1.22-15.8-2.8.76a30.41,30.41,0,0,0,14.06,12.25,1.57,1.57,0,0,0,2.06-.54,1.52,1.52,0,0,0-.54-2.05,27.79,27.79,0,0,1-13-11.17,1.51,1.51,0,0,0-2.79.75L346.88,242a1.5,1.5,0,0,0,3,0Z"/><path class="cls-1" d="M381.23,233.38,370.32,203.1c-.65-1.8-3.55-1-2.9.8l10.92,30.28c.65,1.8,3.55,1,2.89-.8Z"/><path class="cls-1" d="M361.39,209.47a14.92,14.92,0,0,1,15-7.84c3.22.45,6.59,2.18,8,5.24s.7,6.83-1,9.67c-2.13,3.61-5.68,6.11-9.17,8.29-1.63,1-.13,3.62,1.52,2.59,3.72-2.33,7.35-5,9.81-8.69A14.2,14.2,0,0,0,387.62,207c-2.53-8-12.61-10-19.61-7.18a17.7,17.7,0,0,0-9.22,8.18c-.88,1.71,1.71,3.23,2.6,1.51Z"/><path class="cls-1" d="M222.77,314.83c-.07-3.58,2.28-6.39,4.95-8.51a51.43,51.43,0,0,1,10.36-5.88,98.09,98.09,0,0,1,12.55-4.81c3.5-1.07,7.11-1.83,10.54-3.13a18.58,18.58,0,0,0,8.36-5.61,16.22,16.22,0,0,0,2.93-10.84c-.31-6.77-2.47-16.19-10.34-17.65a7.68,7.68,0,0,0-9,5.21c-1.42,4.44.77,8.77,2.9,12.56l1.3-2.26c-6.1-.6-13.42-1.09-18.29,3.4-2,1.86-3.35,4.88-2.1,7.53a4.94,4.94,0,0,0,6.61,2.57c1.47-.73.57-2.64-.76-2.79a23.16,23.16,0,0,0-25.8,23.79c.05,1.93,3.05,1.94,3,0a20.19,20.19,0,0,1,22.8-20.79l-.76-2.8c-1.6.8-2.77-1.56-2.5-2.83.43-2,2.49-3.43,4.27-4.21,4.2-1.84,9.1-1.3,13.53-.87a1.5,1.5,0,0,0,1.29-2.25c-1.69-3-3.71-6.51-2.66-10.07,1-3.2,4.23-4,7.08-2.82,3.1,1.3,4.63,4.58,5.44,7.64a25.78,25.78,0,0,1,.86,10.58c-1.19,7-7.68,9.46-13.79,11.16a117.65,117.65,0,0,0-21.64,8c-6.17,3.11-14.26,7.72-14.09,15.67,0,1.93,3,1.94,3,0Z"/><path class="cls-1" d="M264.64,290.74A84.36,84.36,0,0,1,283,337.11c.14,1.92,3.15,1.93,3,0a87.89,87.89,0,0,0-19.26-48.49c-1.21-1.5-3.32.63-2.12,2.12Z"/><path class="cls-1" d="M279.4,314.74a22,22,0,0,0-22.2,17.52c-.94,4.77-.54,10.45,2.32,14.55a9,9,0,0,0,5.88,4c2.89.49,5.75-.42,8.42-1.45,5.26-2,12.06-5.24,11.58-12-.14-1.92-3.14-1.93-3,0,.35,4.89-4.75,7.27-8.57,8.77-4,1.59-9.06,3.31-11.93-1.12-2.2-3.41-2.57-8-1.81-11.93a18.9,18.9,0,0,1,6.2-10.77,19.25,19.25,0,0,1,13.11-4.55c1.93.06,1.93-2.94,0-3Z"/><path class="cls-1" d="M246.24,306.4a16.64,16.64,0,0,1,13,5.14c1.33,1.41,3.45-.72,2.12-2.12a19.56,19.56,0,0,0-15.15-6c-1.92.11-1.93,3.11,0,3Z"/><path class="cls-1" d="M262.3,316.27a1.5,1.5,0,0,0,0-3,1.5,1.5,0,0,0,0,3Z"/><path class="cls-1" d="M258.33,299.17a10,10,0,0,1,1.3.23,12.94,12.94,0,0,1,1.5.45l.44.17c-.15-.06,0,0,.07,0l.71.34a14.65,14.65,0,0,1,1.41.85,8.08,8.08,0,0,1,1.05.83,12.8,12.8,0,0,1,1.11,1.1,11.4,11.4,0,0,1,1.66,2.48,1.51,1.51,0,0,0,2.05.53,1.53,1.53,0,0,0,.54-2.05,15.05,15.05,0,0,0-11.84-8,1.51,1.51,0,0,0-1.5,1.5,1.53,1.53,0,0,0,1.5,1.5Z"/><path class="cls-1" d="M273.54,309.41l-.41-1.07a1,1,0,0,0-.27-.51,1,1,0,0,0-.42-.39,1.12,1.12,0,0,0-.56-.18,1.19,1.19,0,0,0-.59,0l-.36.15a1.4,1.4,0,0,0-.54.54l-.15.36a1.51,1.51,0,0,0,0,.79l.41,1.08a1.06,1.06,0,0,0,.27.51,1,1,0,0,0,.42.38,1.69,1.69,0,0,0,1.15.16l.36-.16a1.45,1.45,0,0,0,.54-.53l.15-.36a1.55,1.55,0,0,0,0-.8Z"/><path class="cls-1" d="M224.91,327a44.7,44.7,0,0,0,46.61,30.22c1.9-.19,1.92-3.19,0-3a42,42,0,0,1-38.3-17.4,42.5,42.5,0,0,1-5.41-10.61c-.62-1.82-3.52-1-2.9.79Z"/><path class="cls-1" d="M318,302.9a58.32,58.32,0,0,1,10.3-28.61l-2,.54c2.47,1.58,2.33,5.14,2,7.7-.46,3.68-1,7.07.71,10.53,1.34,2.72,3.08,5,2.21,8.16a7.49,7.49,0,0,1-5.27,5.34c-1.87.47-1.08,3.37.8,2.89a10.4,10.4,0,0,0,6.93-6.2c1.44-3.49.68-6.74-1.11-9.92a10.89,10.89,0,0,1-1.82-5.82c0-2.15.56-4.25.7-6.39.21-3.36-.65-7-3.64-8.89a1.54,1.54,0,0,0-2.05.54A61.3,61.3,0,0,0,315,302.9c-.16,1.92,2.84,1.91,3,0Z"/><path class="cls-1" d="M314.83,303.85A9.8,9.8,0,0,0,325.54,310a1.51,1.51,0,0,0,1-1.85,1.55,1.55,0,0,0-1.85-1c-.41.06.32,0-.09,0l-.25,0c-.23,0-.45,0-.68,0l-.62,0c-.19,0,.26.05,0,0l-.37-.06a8.5,8.5,0,0,1-1.19-.35l-.16-.06-.17-.08c-.2-.09-.4-.2-.6-.31l-.53-.33-.26-.18c-.32-.23.13.12,0,0a11.38,11.38,0,0,1-.94-.9c-.07-.08-.14-.15-.2-.23s-.16-.21,0,0l-.35-.51c-.12-.2-.23-.39-.33-.6a2.39,2.39,0,0,1-.13-.28c.11.24,0,0,0-.1a1.54,1.54,0,0,0-1.85-1.05,1.52,1.52,0,0,0-1,1.85Z"/><path class="cls-1" d="M315,302.65a265,265,0,0,1-6.18,38.69c-.45,1.88,2.44,2.68,2.89.8A270.32,270.32,0,0,0,318,302.65c.16-1.92-2.84-1.91-3,0Z"/><path class="cls-1" d="M325,309l.07,28a1.5,1.5,0,0,0,3,0L328,309a1.5,1.5,0,0,0-3,0Z"/><path class="cls-1" d="M47.66,459.71,61.5,457.1a1.5,1.5,0,1,0-.79-2.89l-13.85,2.61a1.5,1.5,0,0,0-1,1.84,1.52,1.52,0,0,0,1.84,1Z"/><path class="cls-1" d="M71.25,465.47l1.31-21.83c.11-1.93-2.89-1.92-3,0l-1.31,21.83c-.11,1.93,2.89,1.92,3,0Z"/><path class="cls-1" d="M66.54,438.94c3.5-4.91,11.73-6.2,16.39-2.21a7.31,7.31,0,0,1,2.43,7.16c-.68,3-3,4.17-5.83,4.74-3.36.68-6.83.82-9.53,3.21-1.45,1.28.68,3.39,2.12,2.12,2.52-2.24,6.5-1.89,9.57-2.77a8.88,8.88,0,0,0,6.67-7,10.34,10.34,0,0,0-3.09-9.38,13.85,13.85,0,0,0-10.18-3.37,14.75,14.75,0,0,0-11.14,6c-1.12,1.58,1.48,3.08,2.59,1.52Z"/><path class="cls-1" d="M94.24,447.45l7.16,18.31a1.58,1.58,0,0,0,1.45,1.1,1.51,1.51,0,0,0,1.45-1.1,81,81,0,0,1,5.81-19.64,1.56,1.56,0,0,0-.54-2.06,1.51,1.51,0,0,0-2,.54A84.32,84.32,0,0,0,101.4,465h2.9l-7.17-18.31a1.55,1.55,0,0,0-1.84-1,1.51,1.51,0,0,0-1.05,1.85Z"/><path class="cls-1" d="M123.51,464.32a136.85,136.85,0,0,1,2.9-32.92c.4-1.88-2.49-2.69-2.89-.8a140,140,0,0,0-3,33.72c.06,1.93,3.06,1.94,3,0Z"/><path class="cls-1" d="M117.07,424.74a24.51,24.51,0,0,1,20.63.31,23.07,23.07,0,0,1,4.43,2.78c1.37,1.11,2.94,2.58,3.23,4.41s-1.1,3.5-2.34,4.74a30.69,30.69,0,0,1-4.46,3.66,33.47,33.47,0,0,1-12.3,5.11c-1.89.37-1.09,3.26.8,2.89a35.59,35.59,0,0,0,12.67-5.18c3.32-2.18,7.92-5.45,8.58-9.68.71-4.56-3.5-8-7-10.15a27.8,27.8,0,0,0-11.88-3.88,27.22,27.22,0,0,0-13.92,2.4c-1.75.81-.22,3.4,1.52,2.59Z"/><path class="cls-1" d="M137.12,362.85c-2.84,5.64-10.37,8-15.12,3.19a7.35,7.35,0,0,1-1.7-8c1.09-2.61,3.68-4.74,6.61-4.51a6.55,6.55,0,0,1,5.94,6.44l2.94-.4c-1-5.17,1.13-11.42,6.92-12.38a5.75,5.75,0,0,1,5.87,2.36,5.23,5.23,0,0,1,.09,5.94c-1.12,1.58,1.48,3.08,2.59,1.51a8.14,8.14,0,0,0,0-8.83,8.63,8.63,0,0,0-8.25-4,11.25,11.25,0,0,0-8.49,5.29,15.22,15.22,0,0,0-1.62,10.92c.33,1.71,2.9,1.24,2.95-.39a9.49,9.49,0,0,0-6.54-9,9.33,9.33,0,0,0-10.48,3.6,10.27,10.27,0,0,0-.68,11.29,11.82,11.82,0,0,0,10.29,5.82,13.32,13.32,0,0,0,11.27-7.36c.86-1.72-1.73-3.24-2.59-1.51Z"/><path class="cls-1" d="M135.25,368.81a14.57,14.57,0,0,0,24.23,7.1c1.42-1.31-.71-3.43-2.12-2.12A11.56,11.56,0,0,1,138.15,368c-.47-1.87-3.37-1.08-2.9.8Z"/><path class="cls-1" d="M152.57,354c4.39-2.92,11.49-7.18,15.84-1.78,3.78,4.68,2.46,11.57,4.14,17,.57,1.84,3.47,1,2.89-.8-1.93-6.28-.39-14-5.53-19a10.47,10.47,0,0,0-9.13-2.58c-3.61.57-6.74,2.6-9.72,4.58-1.6,1.07-.1,3.67,1.51,2.59Z"/><path class="cls-1" d="M153.47,380.34a13,13,0,0,0,23.7-1.74c.7-1.8-2.2-2.58-2.89-.79a10,10,0,0,1-18.22,1c-.93-1.7-3.52-.18-2.59,1.51Z"/><path class="cls-1" d="M172.47,365.9c2.68-1,5,1.08,6.08,3.43a22.27,22.27,0,0,1,1.37,8.53,36.14,36.14,0,0,1-4.27,17.48c-.91,1.7,1.68,3.22,2.59,1.51a39.27,39.27,0,0,0,4.59-21.17c-.24-3.35-.74-7-2.82-9.75-1.9-2.51-5.25-4-8.34-2.92-1.8.64-1,3.54.8,2.89Z"/><path class="cls-1" d="M121.42,369.15a42.86,42.86,0,0,0,9.19,36c1.24,1.47,3.35-.66,2.12-2.13A39.61,39.61,0,0,1,124.32,370c.38-1.89-2.51-2.69-2.9-.8Z"/><path class="cls-1" d="M132.55,381.1l-.12,0,.16-.07.34-.11c.22-.07.45-.11.68-.16l-.13,0,.17,0H134a6.27,6.27,0,0,1,.75,0c.19,0-.33-.06-.14,0l.18,0,.34.07c.23.06.45.14.67.22s-.28-.13-.11-.05l.16.07.31.16a6.74,6.74,0,0,1,.62.42,1.52,1.52,0,0,0,1.16.15,1.57,1.57,0,0,0,.89-.69A1.47,1.47,0,0,0,139,380a1.76,1.76,0,0,0-.68-.89,7,7,0,0,0-3.55-1.31,7.13,7.13,0,0,0-3.72.68,1.51,1.51,0,0,0-.54,2.05,1.55,1.55,0,0,0,2.06.54Z"/><path class="cls-1" d="M148.45,384.41c.1-.09.34-.24-.07,0l.15-.11c.12-.08.25-.14.38-.21-.41.23-.26.11-.13.06l.23-.07a3.29,3.29,0,0,1,.43-.09l-.4.05a4.18,4.18,0,0,1,1,0l-.4-.05a3.36,3.36,0,0,1,.76.18c.12.05.33.18-.1,0l.17.08a3.37,3.37,0,0,1,.32.19l.15.11c-.38-.24-.21-.17-.11-.09l.27.26a.81.81,0,0,0,.12.14c-.32-.35-.16-.21-.09-.1a2.82,2.82,0,0,1,.21.38,1.49,1.49,0,0,0,.9.69,1.5,1.5,0,0,0,1.69-2.2,4.72,4.72,0,0,0-3.31-2.46,4.91,4.91,0,0,0-4.3,1.13,1.52,1.52,0,0,0,0,2.12,1.54,1.54,0,0,0,2.13,0Z"/><path class="cls-1" d="M132.06,388.21c1.18,6.14,4.61,12.6,11.21,14.1a9.67,9.67,0,0,0,8.41-1.86,8.43,8.43,0,0,0,3.06-7.86,1.51,1.51,0,0,0-1.84-1,1.53,1.53,0,0,0-1.05,1.85,5.56,5.56,0,0,1-2.56,5.13,7,7,0,0,1-6.4.55c-4.88-1.74-7-6.95-7.94-11.66-.36-1.89-3.25-1.09-2.89.8Z"/><path class="cls-1" d="M391.55-2.6l.41-.11c.4-.11-.28,0,.14,0s.54,0,.82,0-.28-.07.14,0l.4.08a5.49,5.49,0,0,1,.78.26c-.3-.12.12.06.14.08a2.64,2.64,0,0,1,.37.2l.35.22s.38.29.14.09c.18.15.35.3.52.47s.19.19.29.3l.18.21c-.09-.12-.09-.12,0,0a7.42,7.42,0,0,1,.44.7c.07.13.13.25.18.37-.13-.29,0,.12.05.15.07.22.12.44.18.66.1.41,0-.28,0,.14,0,.18,0,.36,0,.55a2.83,2.83,0,0,1,0,.41c0-.35,0,.06,0,.11a5.9,5.9,0,0,1-.17.6c-.11.37.14-.26,0,.09l-.17.33a3.21,3.21,0,0,1-.19.31l-.14.21c.11-.14.11-.15,0,0s-.3.34-.47.5l-.22.21s-.37.28-.09.08c-.2.14-.41.28-.63.41l-.33.18c-.06,0-.55.23-.21.1a7.62,7.62,0,0,1-1.32.37c-.4.08.31,0-.1,0l-.37,0c-.24,0-.49,0-.73,0,.37,0,0,0-.09,0l-.36-.08-.35-.11c-.38-.11.25.14-.1,0a6.84,6.84,0,0,1-.65-.37c-.23-.13-.05,0,0,0a3.8,3.8,0,0,1-.37-.33l-.25-.26c0-.05-.27-.37-.07-.08a5.6,5.6,0,0,1-.38-.61l-.17-.33v0a7.81,7.81,0,0,1-.26-.82c0-.12,0-.24-.07-.36s0-.16,0,0l0-.25c0-.24,0-.49,0-.74s0-.25,0-.37l0-.25q0,.3,0,0a7.72,7.72,0,0,1,.2-.83l.12-.35c.1-.28-.11.19.07-.15l.4-.68c.21-.33-.2.21.06-.08L390-1.7l.27-.24c.13-.11.13-.11,0,0l.21-.14a1.54,1.54,0,0,0,.54-2,1.53,1.53,0,0,0-2.06-.54c-4.74,3.14-4.07,11.48,1.67,13.11a7.92,7.92,0,0,0,7.48-2,6.67,6.67,0,0,0,1.2-8,7.65,7.65,0,0,0-8.51-3.89,1.53,1.53,0,0,0-1.05,1.85,1.52,1.52,0,0,0,1.84,1Z"/><path class="cls-1" d="M484.26,66.73A401,401,0,0,1,496.87,6.25a1.5,1.5,0,0,0-2.89-.8A401.79,401.79,0,0,0,483.26,53q-1.12,6.87-2,13.77c-.25,1.91,2.75,1.89,3,0Z"/><path class="cls-1" d="M4.43,4.61a154,154,0,0,1,57.4,9.75c1.81.68,2.59-2.22.8-2.89A156.34,156.34,0,0,0,4.43,1.61c-1.93,0-1.93,3,0,3Z"/><path class="cls-1" d="M77.43,14.59a5.79,5.79,0,0,0-4.15,3.91,6.07,6.07,0,0,0,1.08,5.62A7.45,7.45,0,0,0,84.65,25.4a8.17,8.17,0,0,0,3.19-4.54,7.26,7.26,0,0,0-1-5.6A7.9,7.9,0,0,0,77,12.1a8.17,8.17,0,0,0-3.87,4.37,7.66,7.66,0,0,0,.09,6,1.5,1.5,0,0,0,2,.53,1.55,1.55,0,0,0,.54-2.05c.1.24-.07-.23-.07-.22l-.12-.45s-.07-.51,0-.21a3.67,3.67,0,0,1,0-.46,4.12,4.12,0,0,1,.26-1.74,5.61,5.61,0,0,1,1.81-2.63,4,4,0,0,1,3.11-.83c-.26,0,.27.06.26,0l.48.13a3.38,3.38,0,0,1,.72.29A5.24,5.24,0,0,1,83.7,16a4.33,4.33,0,0,1,.17,6.07,5.38,5.38,0,0,1-3,1.75,4.17,4.17,0,0,1-3.33-.75A3.5,3.5,0,0,1,76,19.87c0,.26.07-.27.07-.25s.18-.54.13-.42a2.64,2.64,0,0,1,.23-.44,1.57,1.57,0,0,1,.24-.36,2.52,2.52,0,0,1,.69-.61s.45-.22.22-.13a3.68,3.68,0,0,1,.63-.17,1.51,1.51,0,0,0,1-1.85,1.54,1.54,0,0,0-1.84-1.05Z"/><path class="cls-1" d="M489.74,74.23a2.76,2.76,0,0,0-2.26-2.55,3.36,3.36,0,0,0-3.43,1.42A7.78,7.78,0,0,0,483,76.52a35,35,0,0,0-.39,3.55A11.79,11.79,0,0,0,484,86.85a7.17,7.17,0,0,0,5.72,3.39,7.9,7.9,0,0,0,6.08-2.35,7.66,7.66,0,0,0,1.85-6.48,8.3,8.3,0,0,0-3.55-5.61,8.76,8.76,0,0,0-7-1c-5.83,1.56-8.1,8.33-5.59,13.52a1.5,1.5,0,0,0,2.59-1.52c-1.39-2.86-.57-6.79,2.25-8.46a5.54,5.54,0,0,1,7.83,1.92,4.65,4.65,0,0,1-2.38,6.7,4.57,4.57,0,0,1-3.83-.27,5.26,5.26,0,0,1-2.22-3.63,16.76,16.76,0,0,1,.1-5.56,6.25,6.25,0,0,1,.7-2.73.65.65,0,0,1,.19-.17c.1-.11.05,0,0,0s0,0,.07,0h.11c-.1,0-.06,0,.1,0l-.09,0s-.07-.18,0,0-.13-.28-.13-.36a1.54,1.54,0,0,0,1.5,1.5,1.52,1.52,0,0,0,1.5-1.5Z"/><path class="cls-1" d="M2.74,264.3h.57a1.14,1.14,0,0,0,.58-.12,1.28,1.28,0,0,0,.48-.31,1.11,1.11,0,0,0,.31-.49,1.06,1.06,0,0,0,.13-.58l0-.39a1.47,1.47,0,0,0-.39-.67l-.3-.23a1.58,1.58,0,0,0-.76-.21H2.74a1.27,1.27,0,0,0-.58.13,1.21,1.21,0,0,0-.49.31,1.32,1.32,0,0,0-.31.49,1.13,1.13,0,0,0-.12.57l.05.4a1.54,1.54,0,0,0,.38.67l.31.23a1.42,1.42,0,0,0,.76.2Z"/><path class="cls-1" d="M5.83,265.68a69,69,0,0,0,5.87,28.38c.77,1.76,3.36.24,2.59-1.52a65.48,65.48,0,0,1-5.46-26.86,1.5,1.5,0,0,0-3,0Z"/><path class="cls-1" d="M.88,282.24l12.6-3c1.88-.45,1.09-3.34-.79-2.89l-12.61,3c-1.88.45-1.08,3.34.8,2.89Z"/><path class="cls-1" d="M39.36,276.65c-.08-3.51-3.4-5.86-6.74-5.84-3.78,0-6.48,3.2-7.43,6.62a13,13,0,0,0,2.17,11.4c2.5,3,7.19,4.26,10.54,1.89s4-7,4.23-10.91l-2.56,1.06,6.54,6.93c1.32,1.41,3.44-.71,2.12-2.12l-6.54-6.93a1.52,1.52,0,0,0-2.56,1.06c-.14,2.45-.35,5.29-1.83,7.35s-4.5,2.27-6.6.74c-2.35-1.71-3.13-5-2.95-7.76.15-2.32,1.24-5.18,3.58-6.1,1.88-.73,5,.3,5,2.61,0,1.93,3,1.94,3,0Z"/><path class="cls-1" d="M54.89,267l-1.59-.42a1.52,1.52,0,0,0-1.85,1c-.69,3.58-.44,7.59,1.83,10.59a8.91,8.91,0,0,0,9,3.62A8.59,8.59,0,0,0,68.4,275,10.35,10.35,0,0,0,65,265.75c-3.16-2.85-7.58-3.75-11.73-3.26a1.57,1.57,0,0,0-1.44,1.1,15.47,15.47,0,0,0,4,15.74c1.4,1.33,3.52-.79,2.12-2.13a12.48,12.48,0,0,1-3.19-12.82l-1.45,1.11A12.94,12.94,0,0,1,61.64,267a8,8,0,0,1,3.9,6,5.92,5.92,0,0,1-3.08,5.63c-2.16,1.08-4.7.08-6.27-1.56-2.14-2.25-2.41-5.72-1.84-8.63l-1.85,1.05,1.59.42a1.5,1.5,0,0,0,.8-2.89Z"/><path class="cls-1" d="M25.52,268.68a2.27,2.27,0,0,1-.07-1.92c.06-.17.07-.2,0-.08l.14-.28.24-.41a2.08,2.08,0,0,1,.25-.31,6.17,6.17,0,0,1,.46-.43c-.15.12.28-.17.34-.2l.27-.14c-.12,0-.1,0,.07,0l.45-.11c-.24,0,.31,0,.38,0a7.84,7.84,0,0,1,2.82,1c2,1,4.71,1.74,6.59,0,1.4-1.26,1.87-3.88.23-5.16a1.55,1.55,0,0,0-2.12,0,1.51,1.51,0,0,0,0,2.12l.21.18c-.1-.13-.1-.12,0,0-.06-.15-.07-.15,0,0,0-.18,0-.18,0,0s0,.18,0,0a1.46,1.46,0,0,1,0,.2c0,.1,0,.09,0,0,0,.09-.09.17-.14.26s-.13.22-.43.31a2.2,2.2,0,0,1-1,0,11.31,11.31,0,0,1-2.83-1.13,8.39,8.39,0,0,0-3.32-.94c-3.71-.08-6.79,4.24-5.35,7.7a1.56,1.56,0,0,0,1.85,1,1.51,1.51,0,0,0,1-1.85Z"/><path class="cls-1" d="M79.61,269.84l-.53-1.74a1.52,1.52,0,0,0-.69-.9,1.09,1.09,0,0,0-.55-.18,1.22,1.22,0,0,0-.6,0,1.49,1.49,0,0,0-.9.69,1.54,1.54,0,0,0-.15,1.15l.52,1.74a1.59,1.59,0,0,0,.69.9,1.12,1.12,0,0,0,.56.18,1.22,1.22,0,0,0,.6,0,1.5,1.5,0,0,0,.89-.69,1.54,1.54,0,0,0,.16-1.15Z"/><path class="cls-1" d="M86,265.68l-.08,0,.36.15-.13-.07.31.23-.1-.1.23.31a.83.83,0,0,1-.07-.13l.15.36a.59.59,0,0,1,0-.19l0,.4a1.22,1.22,0,0,1,0-.27l0,.4a1.58,1.58,0,0,1,.09-.31l-.15.36a1.3,1.3,0,0,1,.14-.26l-.23.31a.81.81,0,0,1,.16-.16l-.31.23a.71.71,0,0,1,.15-.08l-.36.15.14,0-.4.05H86l-.4-.05.16,0-.36-.15h0a1.12,1.12,0,0,0,.56.18,1.18,1.18,0,0,0,.59,0,1.14,1.14,0,0,0,.51-.27,1,1,0,0,0,.39-.42,1.5,1.5,0,0,0,.15-1.15l-.15-.36a1.4,1.4,0,0,0-.54-.54,2.21,2.21,0,0,0-1-.26h0a3.25,3.25,0,0,0-.45.06l-.12,0a2.57,2.57,0,0,0-.45.2,2.25,2.25,0,0,0-.39.3,2.62,2.62,0,0,0-.4.48,3.47,3.47,0,0,0-.27.59,1.34,1.34,0,0,0-.07.27,2.68,2.68,0,0,0-.06.64,2.12,2.12,0,0,0,.11.62,1.79,1.79,0,0,0,.21.47,3,3,0,0,0,.27.35s0,0,0,.05a2.12,2.12,0,0,0,.9.51,1.08,1.08,0,0,0,.59,0,1,1,0,0,0,.56-.17,1.13,1.13,0,0,0,.42-.39,1,1,0,0,0,.27-.51l.06-.4a1.58,1.58,0,0,0-.21-.76,1.6,1.6,0,0,0-.9-.69Z"/><path class="cls-1" d="M99,262.41l-.1-.38-2.89.8.61,1.55a1.54,1.54,0,0,0,.69.89,1.09,1.09,0,0,0,.55.18,1.11,1.11,0,0,0,.6,0l.36-.16a1.52,1.52,0,0,0,.54-.53l.15-.36a1.55,1.55,0,0,0,0-.8L98.91,262a1.26,1.26,0,0,0-.27-.51,1.18,1.18,0,0,0-.42-.38,1.66,1.66,0,0,0-1.16-.15l-.35.15a1.4,1.4,0,0,0-.54.54L96,262a1.36,1.36,0,0,0,0,.8l.09.37a1.14,1.14,0,0,0,.27.51,1.12,1.12,0,0,0,.42.39,1.16,1.16,0,0,0,.56.18,1.22,1.22,0,0,0,.6,0l.36-.15a1.55,1.55,0,0,0,.54-.54l.15-.36a1.51,1.51,0,0,0,0-.79Z"/><path class="cls-1" d="M18.11,186.26a54.56,54.56,0,0,1,20.64,6.85,1.5,1.5,0,0,0,1.52-2.59,58.43,58.43,0,0,0-22.16-7.26,1.5,1.5,0,0,0-1.5,1.5,1.52,1.52,0,0,0,1.5,1.5Z"/><path class="cls-1" d="M44.44,185l5.44,7.28c.86,1.15,1.73,2.28,2.57,3.44.64.88,1.65,2.16,1.32,3.32-.48,1.68-3.24,1.64-4.59,1.74-2.36.18-4.54.67-6,2.64a1.5,1.5,0,0,0,.54,2,1.54,1.54,0,0,0,2.05-.54,4,4,0,0,1,2.72-1.08c1.18-.15,2.37-.14,3.54-.37,2.28-.44,4.49-1.83,4.79-4.32.35-3-2.2-5.56-3.85-7.76L47,183.5A1.57,1.57,0,0,0,45,183a1.5,1.5,0,0,0-.53,2Z"/><path class="cls-1" d="M66.21,211.35l6.67-13.22L76,192c.3-.59.58-1.19.89-1.77.11-.21.22-.41.35-.61s.15-.22-.13-.18c.51.31.53,1.48.58,2,.94,9.64,1.63,19.3,2.44,28.94.16,1.91,3.16,1.93,3,0Q82,207.07,80.89,193.83c-.2-2.35-.27-8.21-4.2-7.32-1.85.42-2.52,2.42-3.29,3.93l-3,5.95-6.78,13.45c-.87,1.72,1.72,3.24,2.59,1.51Z"/><path class="cls-1" d="M71.73,207.13A23,23,0,0,1,81.92,211a1.51,1.51,0,0,0,2-.54,1.53,1.53,0,0,0-.54-2,25.83,25.83,0,0,0-11.7-4.23,1.51,1.51,0,0,0-1.5,1.5,1.53,1.53,0,0,0,1.5,1.5Z"/><path class="cls-1" d="M-6.3,168.25c2.09,1.48,4.63,1.9,7.08,2.47,2.09.49,4.71,1.2,5.26,3.61s-1.11,5-3.11,6.18c-2.76,1.67-6.14,1.82-9.28,2a1.51,1.51,0,0,0-.4,2.95,12.23,12.23,0,0,1,5.13,2.91c1.07,1,2.86,2.9,2.76,4.5s-4.28.17-5.15,0l-7.57-1.56c-1.88-.38-2.69,2.51-.79,2.9,3.39.69,6.78,1.4,10.17,2.08,2.48.5,5.7.43,6.26-2.69.46-2.52-1.41-5.09-3-6.82a15.49,15.49,0,0,0-7-4.22l-.4,3c3.78-.2,7.9-.44,11.14-2.61a9.43,9.43,0,0,0,4.34-8c-.16-3.24-2.49-5.41-5.39-6.45s-6-1-8.53-2.78c-1.57-1.12-3.07,1.48-1.51,2.6Z"/><path class="cls-1" d="M92.89,181.61a46.26,46.26,0,0,1-16.68,56.08c-1.59,1.08-.09,3.68,1.51,2.59a49.2,49.2,0,0,0,18.06-59.46c-.72-1.77-3.63-1-2.89.79Z"/><path class="cls-1" d="M338.43-16A104.27,104.27,0,0,1,350.3,7c.66,1.8,3.56,1,2.89-.8A107.08,107.08,0,0,0,341-17.49c-1.08-1.58-3.68-.08-2.59,1.52Z"/><path class="cls-1" d="M248.41,492l.7.23,0,.3a2.86,2.86,0,0,0,.52-.17,8.14,8.14,0,0,1,1.39-.11c1.09-.06,2.17-.08,3.26-.08q3.06,0,6.11.33a62,62,0,0,1,12.14,2.57A63.57,63.57,0,0,1,294.21,507a60.63,60.63,0,0,1,9.67,10.32c1.13,1.54,3.74,0,2.59-1.52a66,66,0,0,0-51.25-26.61c-1.41,0-2.82,0-4.22.07a6.27,6.27,0,0,0-3.77,1c-2,1.64-.82,5.34,2,4.68,1.88-.44,1.09-3.33-.79-2.89Z"/><path class="cls-1" d="M251.75,476.82a133.61,133.61,0,0,1,63,26c1.54,1.16,3-1.44,1.52-2.59a135.52,135.52,0,0,0-63.74-26.27A1.55,1.55,0,0,0,250.7,475a1.5,1.5,0,0,0,1.05,1.84Z"/><path class="cls-1" d="M317.92,32.93c0-.47,0-1.53.52-1.82s.71.55.89.92c.72,1.5,1.33,3.06,1.92,4.62a95,95,0,0,1,3,9.48,1.5,1.5,0,0,0,2.94-.4c0-1.62-.2-4.46,1.8-5.06.94-.28,1.28.48,1.88,1a3.55,3.55,0,0,0,2.26,1.06c2.2.11,3.93-2,5.42-3.29l5.48-4.86c1.45-1.28-.68-3.39-2.12-2.12l-6,5.34c-.59.53-1.94,2.18-2.78,1.83-.34-.13-.65-.68-.91-.93a4.15,4.15,0,0,0-1.32-.87,4.68,4.68,0,0,0-5,1.37c-1.59,1.75-1.68,4.25-1.65,6.48l2.95-.4a93.42,93.42,0,0,0-5-14.23c-.78-1.75-2.13-3.62-4.34-3s-2.75,2.87-2.93,4.85,2.83,1.91,3,0Z"/><path class="cls-1" d="M329,28.39c.6,3.06,2.77,6.16,6,6.63a6,6,0,0,0,4.75-1.2,4.81,4.81,0,0,0,1.7-3.88,4.56,4.56,0,0,0-2.4-4,1.5,1.5,0,1,0-1.51,2.59l.32.17s.12.06.12.08-.21-.21-.1-.08a2.83,2.83,0,0,0,.24.25c.16.17-.13-.22,0,.06a1.94,1.94,0,0,1,.17.31s-.1-.29-.06-.12l.06.14.09.35c.09.34,0-.19,0,.06s0,.46,0,.68,0-.15,0-.14a.86.86,0,0,1,0,.21c0,.12-.06.23-.09.35s0,.14-.06.15.14-.26,0-.07l-.15.27-.09.13c-.09.17.2-.18.05-.06a2.65,2.65,0,0,0-.29.29c-.06.05-.23.17,0,0a.71.71,0,0,0-.14.1l-.31.18c-.11.06-.41.16-.13.07-.13,0-.26.09-.4.12s-.27.06-.41.09c.26-.06.07,0-.08,0a8,8,0,0,1-.85,0c.31,0,0,0-.15,0l-.35-.09-.4-.14c.27.1,0,0-.14-.08a3,3,0,0,1-.38-.23c-.08-.05-.32-.23-.12-.07a6.56,6.56,0,0,1-.67-.62l-.17-.2c-.09-.1-.1-.12,0,0-.11-.14-.21-.29-.3-.43a8.26,8.26,0,0,1-.48-.87,1.54,1.54,0,0,0-.08-.19c.06.14.05.12,0,0s-.12-.33-.17-.5a9.13,9.13,0,0,1-.26-1,1.5,1.5,0,0,0-1.84-1,1.52,1.52,0,0,0-1,1.84Z"/><path class="cls-1" d="M346.89,20.87a5.48,5.48,0,0,0-5.22,5.75,5.61,5.61,0,0,0,2,3.79,5.29,5.29,0,0,0,4.28,1.12A5.48,5.48,0,0,0,351.7,29a1.5,1.5,0,1,0-2.59-1.51l-.17.26c-.14.21.18-.2-.06.05l-.21.22-.16.14c-.14.13.23-.15.06-.05s-.38.24-.57.34.24-.07,0,0l-.39.13-.3.07c-.27.05.32,0-.06,0h-.31c-.08,0-.49-.05-.26,0s-.1,0-.16,0l-.34-.1c-.27-.08.21.12,0,0s-.25-.13-.37-.21a1.48,1.48,0,0,0-.13-.08l.1.07c0-.06-.19-.16-.24-.21a3.07,3.07,0,0,1-.25-.26,1.27,1.27,0,0,0-.1-.12c.06,0,.16.23,0,.05l-.34-.59c-.08-.15.05.1,0,.11s-.05-.15-.07-.19-.07-.24-.1-.36l0-.15c0-.14,0-.17,0,.09,0-.1,0-.22,0-.32V26c0-.26,0,0,0,.09a.86.86,0,0,0,0-.21c0-.1.05-.21.08-.31l.07-.19c0-.06.1-.17,0,0l.09-.15.22-.35c.08-.14-.06.08-.08.09s.11-.13.14-.16a2.13,2.13,0,0,1,.3-.3s.08-.07.11-.11-.22.15-.05,0l.35-.23a1.14,1.14,0,0,0,.33-.17c-.05.09-.26.1-.07,0l.2-.06a3,3,0,0,1,.4-.11c.06,0,.21,0,0,0h.12a1.5,1.5,0,0,0,0-3Z"/><path class="cls-1" d="M358.4,17.68a5,5,0,0,0-4.74-.22,4.83,4.83,0,0,0-2.63,3.9c-.37,3.34,2.83,5.59,5.87,5.65a14.21,14.21,0,0,0,5.8-1.56,1.51,1.51,0,0,0,.54-2.05,1.55,1.55,0,0,0-2.05-.54A11.1,11.1,0,0,1,356.84,24c-.07,0-.62-.06-.25,0l-.39-.07-.51-.14-.25-.09c.16.07.16.06,0,0a3.65,3.65,0,0,1-.34-.18c-.06,0-.5-.34-.23-.13a4,4,0,0,1-.38-.34l-.16-.19c.09.12.1.14,0,0s-.15-.26-.23-.38h0c0-.09-.06-.17-.08-.25L354,22c0,.16,0,.18,0,.07s0-.31,0-.46,0-.18,0,0a2,2,0,0,1,.06-.26c0-.07.2-.57.06-.27a3.72,3.72,0,0,1,.19-.34,1.64,1.64,0,0,1,.14-.22c-.1.13-.09.13,0,0s.45-.36.19-.19l.34-.21c.16-.07.16-.07,0,0l.25-.08c.08,0,.6-.1.25-.07a2.64,2.64,0,0,1,.4,0h.26c-.18,0-.18,0,0,0s.34.09.51.15c-.31-.12.17.11.22.15a1.5,1.5,0,1,0,1.52-2.59Z"/><path class="cls-1" d="M369.67,13.62A5.53,5.53,0,0,0,363.93,15a5.05,5.05,0,0,0-1.06,5.91,5.89,5.89,0,0,0,5,3.11,5,5,0,0,0,4.72-3.28,5.55,5.55,0,0,0-1.16-6A1.51,1.51,0,0,0,369,16.51a10.06,10.06,0,0,0,6.56,5.08,1.54,1.54,0,0,0,1.85-1.05,1.52,1.52,0,0,0-1.05-1.84,7.12,7.12,0,0,1-4.77-3.7l-2.35,1.82a2.76,2.76,0,0,1,.29.3c-.14-.17.06.09.09.15l.11.19c.11.2-.07-.2,0,0a3.68,3.68,0,0,1,.15.47c0,.09.06.41,0,.16,0,.14,0,.28,0,.42s0,.28,0,.43c0-.27,0,.14-.05.23s-.09.32-.14.48.06-.07-.08.16l-.21.36-.05.07-.1.12c-.1.1-.2.2-.31.29s0,0,0,0l-.18.11a2.35,2.35,0,0,1-.63.23l-.33,0-.33,0a2.54,2.54,0,0,0-.32-.08c-.07,0-.46-.17-.28-.09a4.76,4.76,0,0,1-.76-.45l-.25-.24c-.05-.05-.32-.37-.21-.22-.09-.12-.16-.26-.24-.39s0,.05-.09-.19-.12-.45-.11-.39,0-.09,0-.1v-.31c0-.25,0,0,0-.2a3.19,3.19,0,0,1,.13-.44c-.08.2.07-.13.1-.18l.12-.2s.18-.23.11-.15a3,3,0,0,1,1.34-.92,1.92,1.92,0,0,1,.86-.14h.23c-.17,0-.05,0,.05,0a3.93,3.93,0,0,1,.58.19,1.5,1.5,0,0,0,1.84-1,1.54,1.54,0,0,0-1-1.85Z"/><path class="cls-1" d="M369.48,85.47a50.47,50.47,0,0,0-3.78,16.46,1.52,1.52,0,0,0,1.1,1.45l15.17,5c1.84.61,2.63-2.29.8-2.89l-15.18-5,1.11,1.45a48,48,0,0,1,3.67-15.66,1.51,1.51,0,0,0-1-1.85,1.53,1.53,0,0,0-1.85,1Z"/><path class="cls-1" d="M369.47,101.39a191,191,0,0,1,33.26-24.45,1.5,1.5,0,0,0-1.52-2.59,194.82,194.82,0,0,0-33.86,24.91c-1.43,1.31.7,3.43,2.12,2.13Z"/><path class="cls-1" d="M392.17,73.78l13.72.46L404.59,72a31.63,31.63,0,0,0-2.22,19.58c.39,1.89,3.28,1.09,2.89-.8a28.13,28.13,0,0,1,1.92-17.26,1.52,1.52,0,0,0-1.29-2.26l-13.72-.46c-1.94-.06-1.93,2.94,0,3Z"/><path class="cls-1" d="M438.67,11.71c-.63-.4-.47-1.33-.23-1.94a4.36,4.36,0,0,1,2.4-2.18c2.34-1.15,4.73-1.85,6.4-4a10.12,10.12,0,0,0-.34-12.72c-1.28-1.44-3.4.69-2.12,2.12a6.79,6.79,0,0,1,1.44,5.71,6.79,6.79,0,0,1-4,5c-2.36,1.12-5.05,1.86-6.32,4.37-1.1,2.14-.93,4.84,1.23,6.21,1.63,1,3.14-1.55,1.51-2.59Z"/><path class="cls-1" d="M438.67,511.71c-.63-.4-.47-1.33-.23-1.94a4.36,4.36,0,0,1,2.4-2.18c2.34-1.15,4.73-1.85,6.4-4a10.12,10.12,0,0,0-.34-12.72c-1.28-1.44-3.4.69-2.12,2.12a6.95,6.95,0,0,1-2.53,10.73c-2.36,1.12-5.05,1.86-6.32,4.37-1.1,2.14-.93,4.84,1.23,6.21,1.63,1.05,3.14-1.55,1.51-2.59Z"/><path class="cls-1" d="M36.33,65.93A77.68,77.68,0,0,1,58.68,84.72c.92,1.12,2.44.08,2.56-1.06a73.88,73.88,0,0,0-4-33c-.66-1.8-3.56-1-2.9.8a71.77,71.77,0,0,1,3.89,32.19L60.8,82.6A80,80,0,0,0,37.85,63.34c-1.69-1-3.21,1.64-1.52,2.59Z"/><path class="cls-1" d="M85.71,82.36a198.4,198.4,0,0,1-5,32.51c-.46,1.87,2.44,2.68,2.89.8a203.84,203.84,0,0,0,5.16-33.31c.14-1.93-2.86-1.92-3,0Z"/><path class="cls-1" d="M73.13,111l9.38,14.15a1.52,1.52,0,0,0,2.74-.36,49,49,0,0,1,12.89-20.24c1.4-1.33-.72-3.45-2.12-2.12A52.15,52.15,0,0,0,82.36,124l2.74-.36-9.37-14.15c-1.07-1.61-3.67-.11-2.6,1.51Z"/><path class="cls-1" d="M204.48-4.31l12.29,26.13c.58,1.24,2.37.76,2.74-.36l13.85-41.95c.61-1.84-2.29-2.63-2.89-.8l-13.85,42,2.74-.36L207.07-5.83c-.82-1.74-3.41-.22-2.59,1.52Z"/><path class="cls-1" d="M213.51,11.09l7.67-8.71a1.53,1.53,0,0,0,0-2.12,1.52,1.52,0,0,0-2.12,0L211.39,9a1.5,1.5,0,1,0,2.12,2.12Z"/><path class="cls-1" d="M219.13,34.84,191,17.11,176.9,8.24a39.55,39.55,0,0,0-6.48-3.83,6.43,6.43,0,0,0-6.33,1,82.79,82.79,0,0,0-6.65,5.91l-7,6.39c-1.43,1.3.69,3.42,2.12,2.12L164.17,9.28c1.66-1.51,3.35-3,5.65-1.88a65,65,0,0,1,6.2,3.83L202.49,27.9l15.12,9.53c1.64,1,3.15-1.56,1.52-2.59Z"/><path class="cls-1" d="M193.53,22,180.17,38.5a1.54,1.54,0,0,0,0,2.12,1.52,1.52,0,0,0,2.12,0l13.36-16.55a1.54,1.54,0,0,0,0-2.12,1.51,1.51,0,0,0-2.12,0Z"/><path class="cls-1" d="M217.24,36.21,195.07,66.34c-1.15,1.56,1.46,3.06,2.59,1.52l22.17-30.13c1.14-1.56-1.46-3.06-2.59-1.52Z"/><path class="cls-1" d="M204.48,495.69l12.29,26.13c.58,1.24,2.37.76,2.74-.36l13.85-42c.61-1.84-2.29-2.63-2.89-.8l-13.85,41.95,2.74-.36-12.29-26.13c-.82-1.74-3.41-.22-2.59,1.52Z"/><path class="cls-1" d="M213.51,511.09l7.67-8.71a1.5,1.5,0,0,0-2.12-2.12L211.39,509a1.5,1.5,0,0,0,2.12,2.12Z"/><path class="cls-1" d="M139.06,491.74c-.85-3,1.48-6,4.14-7.17,3.47-1.58,7.58-1,11.25-.72s7.49.46,11-1a12.6,12.6,0,0,0,6.4-6,13.07,13.07,0,0,0,.87-9.85c-.59-1.83-3.49-1-2.89.8a10.11,10.11,0,0,1-8.74,13.14c-7.05.86-15.16-2.56-21.35,2.31-2.79,2.2-4.53,5.76-3.53,9.3a1.5,1.5,0,0,0,2.89-.8Z"/><path class="cls-1" d="M23,350.61c2.24-2.19,5.88-1.35,8.12.42,3,2.41,4,6.72,4.74,10.33,1.32,6.48,3,15.4,10.88,16.74,3.37.57,7.06-.45,8.76-3.64.9-1.7-1.69-3.22-2.59-1.51-1.36,2.55-4.71,2.78-7.15,1.77-3.19-1.32-4.76-4.89-5.65-8-1.91-6.66-1.9-15.82-9.13-19.29-3.31-1.58-7.35-1.63-10.1,1.05-1.39,1.35.74,3.47,2.12,2.13Z"/><path class="cls-1" d="M142,114.26a9.38,9.38,0,0,1,.4-17.1c3.73-1.6,8-1.07,11.55-3.21a15.17,15.17,0,0,0,6.18-7.39,14.41,14.41,0,0,0,.17-10.78c-.72-1.76-3.63-1-2.9.8,2.54,6.21-1,14.06-7.56,15.88-2.17.6-4.44.71-6.62,1.28a12.84,12.84,0,0,0-5.18,2.68,12.5,12.5,0,0,0-4.35,9.9,12.76,12.76,0,0,0,6.79,10.53c1.72.89,3.24-1.7,1.52-2.59Z"/><path class="cls-1" d="M85.92,46.59C88.81,43.52,92,40,96.29,39c4.44-1.1,8.57,1.39,11.77,4.24C114,48.48,119.65,56.88,128.73,55c3.87-.82,7.06-3.54,7.57-7.57.25-1.91-2.75-1.89-3,0-.39,3.1-3.88,4.7-6.66,4.85-4,.22-7.38-2.3-10.16-4.9-5.85-5.49-12.18-13.74-21.35-11.14C90.52,37.5,87,41.09,83.8,44.47c-1.32,1.41.79,3.54,2.12,2.12Z"/><path class="cls-1" d="M125.26,175l2.45-15.07,1.19-7.3.63-3.89.16-1c.19-.52-.1-.53-.86,0-.06.17.86,1.24,1,1.42l17.26,25c1.09,1.58,3.69.08,2.59-1.51l-15.29-22.11-1.82-2.64a15.1,15.1,0,0,0-1.77-2.41,2.3,2.3,0,0,0-3.85,1,38.54,38.54,0,0,0-1,6.15l-1.07,6.57-2.45,15.07c-.31,1.89,2.59,2.7,2.89.8Z"/><path class="cls-1" d="M240.41,226.35c.34-4.39.79-9.46,3.61-13.07,3.53-4.53,9.67-3.84,14.76-3.52,6.41.4,12.83.9,19.25,1.19,5.17.23,10.54-.5,13.82-4.95,3.11-4.22,3.33-10,3.33-15a1.5,1.5,0,0,0-3,0c0,4.39-.05,9.51-2.73,13.22-3.31,4.6-9.57,3.86-14.52,3.55-6.42-.4-12.85-.9-19.27-1.19-5.2-.24-10.57.48-14,4.84-3.27,4.19-3.88,9.81-4.28,14.93-.14,1.93,2.86,1.92,3,0Z"/><path class="cls-1" d="M442.11,130.9a84,84,0,0,1,2.46-13c.57-2.08,1.21-4.15,1.94-6.19a18.89,18.89,0,0,1,2.65-5.7c1-1.23,2.8-2.35,4.4-1.57s2.22,2.78,2.9,4.2q2.87,6.06,5.29,12.32,2.75,7.1,4.9,14.4c.54,1.85,3.44,1.06,2.89-.8a184.24,184.24,0,0,0-11-28.44c-.86-1.77-1.95-3.56-3.81-4.42a6.17,6.17,0,0,0-5.67.46A10.53,10.53,0,0,0,445,107.2a68.9,68.9,0,0,0-2.51,7,88.37,88.37,0,0,0-3.41,16.73c-.21,1.91,2.79,1.9,3,0Z"/><path class="cls-1" d="M444.5,121.65h15a1.5,1.5,0,0,0,0-3h-15a1.5,1.5,0,0,0,0,3Z"/><path class="cls-1" d="M164.25,325.23c.84-6.07,1.32-12.18,2.22-18.24a85.57,85.57,0,0,1,1.83-9.23,26.34,26.34,0,0,1,2.72-7.22,8.48,8.48,0,0,1,4.3-3.8,9.33,9.33,0,0,1,6.47.47c1.9.74,4.1,2.06,4.91,4,.89,2.17-.67,4.37-2.28,5.73-2,1.64-4.51,2.38-6.89,3.19a23,23,0,0,0-7.16,3.56c-1.11.88-.1,2.48,1.06,2.56,4.46.3,9.2.56,13.26,2.62,3.27,1.66,6.34,4.77,6.65,8.6.28,3.53-1.92,6.55-4.73,8.45a21,21,0,0,1-11.16,3.24c-5.5.23-11-.36-16.47.65-1.89.35-1.09,3.25.8,2.89,9.74-1.8,20.47,1.73,29.05-4.69,3.23-2.43,5.65-6,5.53-10.17-.13-4.42-3-8.24-6.55-10.62-4.78-3.19-10.81-3.6-16.38-4l1.06,2.56c4.18-3.33,10.09-3.26,14.18-6.86,2-1.75,3.55-4.36,3.24-7.09a8.6,8.6,0,0,0-4.08-5.94c-4.28-2.93-10.29-3.75-14.51-.34-4.4,3.56-5.75,10-6.81,15.25-1.59,7.77-2.06,15.71-3.15,23.56a1.55,1.55,0,0,0,1,1.84,1.5,1.5,0,0,0,1.84-1Z"/><path class="cls-1" d="M55.07,419.46l23.51-29.53c1.19-1.5-.92-3.63-2.12-2.12L53,417.34c-1.2,1.49.91,3.63,2.12,2.12Z"/><path class="cls-1" d="M68.28,378.68c8.33-2.32,18.82-1.28,24,6.46a14.55,14.55,0,0,1,2.5,11.13c-.94,4.22-4.13,7.41-7.83,9.43-5.1,2.78-11.07,3.28-16.75,3.79-1.91.17-1.93,3.17,0,3,5.81-.52,11.75-1.07,17.09-3.6,4.42-2.1,8.29-5.64,10-10.32a16.79,16.79,0,0,0-1.36-13.27A19.89,19.89,0,0,0,85,376a28.9,28.9,0,0,0-17.53-.24,1.5,1.5,0,0,0,.8,2.89Z"/><path class="cls-1" d="M224.87,372.12c-10.47.63-20.33,8.54-22.22,19.06-1.82,10.17,3.55,21.27,13.23,25.32,9.52,4,21.59.78,27.16-8.09,5.69-9.08,3.83-21.58-4.59-28.27-4.83-3.84-10.86-5.74-16.87-6.72-3.19-.52-6.63-1.13-9.84-.56-3,.53-5.88,2.58-6.39,5.72-.31,1.89,2.58,2.7,2.89.8.89-5.44,9.24-3.63,12.92-3A36.31,36.31,0,0,1,234.54,381a18.24,18.24,0,0,1,8.09,10.47,19.61,19.61,0,0,1-.87,12.93c-3.63,8.39-13.42,12.39-22.1,10.2s-14.6-11-14.38-19.9c.25-10.37,9.41-19,19.59-19.6,1.92-.12,1.93-3.12,0-3Z"/><path class="cls-1" d="M223.85,402.37a62.4,62.4,0,0,1,25.93,11.44c1.55,1.15,3-1.45,1.52-2.59a64.45,64.45,0,0,0-26.66-11.74c-1.88-.36-2.69,2.53-.79,2.89Z"/><path class="cls-1" d="M367.48,301.73c4.86-1.87,10.23-4,15.46-2.37a8.76,8.76,0,0,1,5.17,4,13.6,13.6,0,0,1,1.38,6.47c.11,4.66-.52,9.64,1.79,13.92a12.36,12.36,0,0,0,22.58-1.9c.66-1.82-2.23-2.6-2.9-.8a9.54,9.54,0,0,1-10.07,6.1,9.88,9.88,0,0,1-8.17-8.58c-.69-4.42.27-8.95-.73-13.35a11.83,11.83,0,0,0-8.61-8.82c-5.69-1.59-11.41.44-16.7,2.48-1.78.68-1,3.59.8,2.89Z"/><path class="cls-1" d="M468,411.13a15.83,15.83,0,0,1,8-7.83,16.37,16.37,0,0,1,12.08-.17c8.29,2.8,15.7,9.82,25,8.84,4.19-.45,8.23-2.39,10.38-6.16a1.5,1.5,0,0,0-2.59-1.51c-1.82,3.19-5.47,4.65-9,4.75-4.49.12-8.73-1.9-12.62-3.93-4.07-2.13-8.14-4.5-12.66-5.55a18.57,18.57,0,0,0-21.14,10c-.81,1.74,1.78,3.27,2.59,1.52Z"/><path class="cls-1" d="M-32,411.13a15.83,15.83,0,0,1,8-7.83,16.37,16.37,0,0,1,12.08-.17c8.29,2.8,15.7,9.82,25,8.84,4.19-.45,8.23-2.39,10.38-6.16a1.5,1.5,0,0,0-2.59-1.51c-1.82,3.19-5.47,4.65-9,4.75-4.49.12-8.73-1.9-12.62-3.93-4.07-2.13-8.14-4.5-12.66-5.55a18.61,18.61,0,0,0-11.91,1.07,18.49,18.49,0,0,0-9.23,9c-.81,1.74,1.78,3.27,2.59,1.52Z"/><path class="cls-1" d="M39.64,127.19c-2.91,5-9.94,7.05-11,13.19-.64,3.62,1.17,7,3.71,9.44,2.91,2.8,6.74,4.37,9.67,7.13,1.41,1.33,3.54-.79,2.13-2.12-2.72-2.55-6.15-4.07-9-6.48-2.29-2-4.42-4.88-3.46-8,.74-2.4,3-4.11,4.82-5.65a23.74,23.74,0,0,0,5.7-6,1.5,1.5,0,0,0-2.59-1.51Z"/><path class="cls-1" d="M30.38,147.78a303.48,303.48,0,0,1,39.86-2.2,1.5,1.5,0,0,0,0-3,303.48,303.48,0,0,0-39.86,2.2c-1.89.23-1.91,3.23,0,3Z"/><path class="cls-1" d="M56.92,130.58l17.3,15.58.31-2.35a51.73,51.73,0,0,0-12.77,9.77c-1.33,1.4.79,3.53,2.12,2.12A48.76,48.76,0,0,1,76,146.4a1.51,1.51,0,0,0,.3-2.36L59.05,128.46c-1.43-1.29-3.56.83-2.13,2.12Z"/><path class="cls-1" d="M16.21,106.61A47.25,47.25,0,0,1,22.63,84H20L42.6,113.76c1.15,1.52,3.76,0,2.59-1.51L22.63,82.48a1.52,1.52,0,0,0-2.59,0,50.44,50.44,0,0,0-6.83,24.13c0,1.93,3,1.93,3,0Z"/><path class="cls-1" d="M17.91,55.28a196.25,196.25,0,0,1,.44-22.36,77.6,77.6,0,0,1,1.06-7.73,17.89,17.89,0,0,1,2.29-6.47A4.41,4.41,0,0,1,27,16.64a12.06,12.06,0,0,1,5.75,4.81,10.84,10.84,0,0,1-1,13.06c-2,2.23-4.47,3.13-7.31,3.78s-5.79,1.45-7.71,4c-1.17,1.55,1.44,3,2.59,1.52,1.7-2.26,5.29-2.38,7.8-3.08a13.75,13.75,0,0,0,7.06-4.46,13.93,13.93,0,0,0,1.67-15.58c-2.52-4.41-8.66-9.55-13.88-6.3-4.52,2.82-5.35,9.16-6,14-1.21,8.95-1.15,17.92-1,26.93,0,1.93,3,1.94,3,0Z"/><path class="cls-1" d="M46.48,298.94a12.92,12.92,0,0,0-11.85-1.6,15.17,15.17,0,0,0-9,8.56c-3.46,8-1.17,17.67,5,23.75A20,20,0,0,0,54,333.08a18,18,0,0,0,8.32-21.25,16.37,16.37,0,0,0-21.78-9.35c-1.76.79-.24,3.38,1.51,2.59,5.92-2.67,13.53.2,16.6,5.82,3.28,6,1.26,14.25-4.16,18.33a16.89,16.89,0,0,1-19.79,0,19.13,19.13,0,0,1-7.32-18.71c.8-3.93,2.95-7.69,6.59-9.61a10.32,10.32,0,0,1,11,.67c1.55,1.16,3-1.44,1.52-2.59Z"/><path class="cls-1" d="M43.27,321.51a55.53,55.53,0,0,1,17,16.22c1.07,1.59,3.67.09,2.59-1.52a58.86,58.86,0,0,0-18-17.29c-1.65-1-3.16,1.58-1.51,2.59Z"/><path class="cls-1" d="M9.59,468.21l15.62,21.87a1.52,1.52,0,0,0,2.74-.36,145,145,0,0,0,3.87-43.79c-.12-1.92-3.12-1.93-3,0a142.32,142.32,0,0,1-3.77,43l2.75-.36L12.18,466.7c-1.11-1.56-3.71-.07-2.59,1.51Z"/><path class="cls-1" d="M22.24,477.28l8.81-14.83a1.5,1.5,0,0,0-2.59-1.51l-8.81,14.82a1.5,1.5,0,0,0,2.59,1.52Z"/><path class="cls-1" d="M208.76,256.3l-.49-32.55a1.52,1.52,0,0,0-2.56-1.06l-1.88,1.79c-1.41,1.33.72,3.45,2.12,2.12l1.88-1.79-2.56-1.06.49,32.55c0,1.93,3,1.94,3,0Z"/><path class="cls-1" d="M193.9,221c5.29-5.46,12-12.19,20.37-10.62a9.2,9.2,0,0,1,7.43,6.54,10.49,10.49,0,0,1-2.09,9.67,13.25,13.25,0,0,1-11,4.27c-1.92-.14-1.91,2.86,0,3,8.88.65,17.53-6.3,16.4-15.65a12.09,12.09,0,0,0-7-9.78,16.77,16.77,0,0,0-13.06.18c-5.24,2.17-9.31,6.26-13.19,10.27-1.34,1.38.78,3.51,2.12,2.12Z"/><path class="cls-1" d="M248.69,162.36c-4.79.95-8.18,4.84-10,9.18a24.14,24.14,0,0,0-.78,15c2.42,9.49,10.67,18.09,21,18a14.82,14.82,0,0,0,12-6.35c2.76-3.83,3.87-8.75,4-13.4.37-10.49-3.83-22.08-13.71-27a17.84,17.84,0,0,0-16.16-.33,15.35,15.35,0,0,0-8.51,12.64c-.1,1.93,2.9,1.93,3,0a12.15,12.15,0,0,1,6.09-9.53,14.24,14.24,0,0,1,12.28-1c9.1,3.24,13.44,12.89,14,22,.44,7.52-1.75,17.52-10.2,19.62s-16.65-4.69-19.73-12.1a22.61,22.61,0,0,1-1.13-14.33c1.17-4.32,4-8.55,8.68-9.47,1.89-.37,1.09-3.27-.79-2.89Z"/><path class="cls-1" d="M262,188.51l15,1.4a1.5,1.5,0,0,0,0-3l-15-1.4a1.5,1.5,0,0,0,0,3Z"/><path class="cls-1" d="M409.31,32.33c3.17-2.34,6.5,1,8.2,3.52,2.06,3,4,6.13,6.59,8.73,5,4.91,12.82,7.81,19.28,3.89,1.65-1,.14-3.59-1.51-2.59-6.77,4.11-14.2-1.11-18.32-6.47-2.22-2.89-3.8-6.46-6.67-8.8-2.49-2-6.32-2.92-9.08-.87-1.54,1.13,0,3.74,1.51,2.59Z"/><path class="cls-1" d="M281.09,74l8.66,8.54c2.14,2.12,5.38,5.47,8.38,2.55a8.42,8.42,0,0,0,1.94-3.79,51,51,0,0,0,1.29-5.73A54.08,54.08,0,0,0,302,63.83c-.1-1.92-3.1-1.93-3,0a51.35,51.35,0,0,1-.39,9.76c-.24,1.68-.57,3.35-1,5a13.16,13.16,0,0,1-1.26,3.83c-.68,1.07-1.48.83-2.39.08-1.23-1-2.32-2.26-3.46-3.38l-7.35-7.27c-1.38-1.35-3.5.77-2.13,2.13Z"/><path class="cls-1" d="M312.87,62.15l9.86,10.92c1.16,1.28,2.45,2.64,4.22,3a4.37,4.37,0,0,0,4.38-1.93,16.82,16.82,0,0,0,2-5.24l2-6.71,4.2-14.38c.55-1.86-2.35-2.65-2.89-.8l-3.58,12.23c-1.13,3.88-2.05,7.92-3.45,11.71-.37,1-1,2.54-2.36,2.11-1.49-.49-2.73-2.45-3.73-3.55L315,60c-1.29-1.43-3.41.69-2.12,2.12Z"/><path class="cls-1" d="M308.27,107.45A8.31,8.31,0,0,1,311,98.89a8.45,8.45,0,0,1,9-.75c2.88,1.44,5.56,3.67,8.95,3.65s6-2.15,7.68-4.83c2.25-3.67,2.11-8.19,1.92-12.33-.09-1.92-3.1-1.93-3,0,.17,3.72.45,7.87-1.7,11.12a5.94,5.94,0,0,1-8,2.21c-3.05-1.5-5.65-3.58-9.17-3.77a11.19,11.19,0,0,0-8.84,3.61,11.45,11.45,0,0,0-2.46,10.44,1.5,1.5,0,0,0,2.89-.79Z"/><path class="cls-1" d="M373,61.54a88.38,88.38,0,0,0,4.38-19.12,1.51,1.51,0,0,0-1.5-1.5,1.53,1.53,0,0,0-1.5,1.5,84.1,84.1,0,0,1-4.27,18.32c-.65,1.82,2.25,2.61,2.89.8Z"/><path class="cls-1" d="M375.94,32.43c.09-2.51,2.81-4.1,5.1-4.14,3.24-.05,6.17,2.12,8.52,4.14,2.16,1.86,4.7,4.36,4.81,7.4.11,2.82-2,5-4.37,6.15-3.58,1.73-7.93,1-11.68.42a1.56,1.56,0,0,0-1.85,1.05,1.52,1.52,0,0,0,1,1.85c4.44.68,9.17,1.37,13.43-.47,3.34-1.45,6.1-4.43,6.41-8.17.33-4.08-2.55-7.6-5.43-10.13s-6.71-5.3-10.89-5.24c-4,.07-8,3-8.1,7.14-.06,1.93,2.94,1.93,3,0Z"/></svg>